{"title":"Sorry.Daddy.Whitezilla.Broke.My.Little.Pussy.4.XXX.DVDRip.XviD","uid":9065906,"size":1459383968,"categoryP":"porn","categoryS":"movies","magnet":"?xt=urn:btih:194a21f60b69526b59f55e47408ef6eca5ea279b&amp;dn=Sorry.Daddy.Whitezilla.Broke.My.Little.Pussy.4.XXX.DVDRip.XviD&amp;tr=udp%3A%2F%2Ftracker.openbittorrent.com%3A80&amp;tr=udp%3A%2F%2Fopen.demonii.com%3A1337&amp;tr=udp%3A%2F%2Ftracker.coppersurfer.tk%3A6969&amp;tr=udp%3A%2F%2Fexodus.desync.com%3A6969","seeders":2,"leechers":4,"uploader":"sonozx","files":3,"time":1382110781,"description":"Sorry Daddy Whitezilla Broke My Little Pussy 4 XXX DVDRip XviD\n &lt;a href=&quot;\nhttp://bayimg.com/KAbDeAaFb&quot; rel=&quot;nofollow&quot; target=&quot;_NEW&quot;&gt;\nhttp://bayimg.com/KAbDeAaFb&lt;/a&gt;\n\n\nHush Hush is proud to bring you Whitezilla, the biggest white cock in porn. It's time to do some anglo-sexin' as these tiny girls get stuffed with more cock then they can handle. Watch Whitezilla as he impales tiny teens with his vanilla thrilla! Monster Cocks aren't just exclusive to the brothas anymore! You know what they say...Once You Go Jew, You're Through!\n\nVideo\nFormat: MPEG-4 Visual\nFormat profile: Streaming Video@L1\nFormat settings, BVOP: Yes\nFormat settings, QPel: No\nFormat settings, GMC: No warppoints\nFormat settings, Matrix: Default\nCodec ID: XVID\nCodec ID/Hint: XviD\nDuration: 1h 9mn\nBit rate: 1 258 Kbps\nWidth: 512 pixels\nHeight: 288 pixels\nDisplay aspect ratio: 16/9\nFrame rate: 29.970 fps\nResolution: 24 bits\nColorimetry: 4:2:0\nScan type: Progressive\nBits/(Pixel*Frame): 0.285\nStream size: 630 MiB (90%)\nWriting library: XviD 1.1.2 (UTC 2006-11-01)\n\nAudio\nFormat: MPEG Audio\nFormat version: Version 1\nFormat profile: Layer 3\nCodec ID: 55\nCodec ID/Hint: MP3\nDuration: 1h 9mn\nBit rate mode: Variable\nBit rate: 125 Kbps\nChannel(s): 2 channels\nSampling rate: 48.0 KHz\nResolution: 16 bits\nStream size: 62.6 MiB (9%)\nAlignment: Aligned on interleaves\nInterleave, duration: 24 ms (0.72 video frame)\nInterleave, preload duration: 470 ms","torrent":{"xt":"urn:btih:194a21f60b69526b59f55e47408ef6eca5ea279b","amp;dn":"Sorry.Daddy.Whitezilla.Broke.My.Little.Pussy.4.XXX.DVDRip.XviD","amp;tr":["udp%3A%2F%2Ftracker.openbittorrent.com%3A80","udp%3A%2F%2Fopen.demonii.com%3A1337","udp%3A%2F%2Ftracker.coppersurfer.tk%3A6969","udp%3A%2F%2Fexodus.desync.com%3A6969"],"infoHash":"194a21f60b69526b59f55e47408ef6eca5ea279b","infoHashBuffer":{"type":"Buffer","data":[25,74,33,246,11,105,82,107,89,245,94,71,64,142,246,236,165,234,39,155]},"announce":[],"urlList":[]}}